<mxfile host="app.diagrams.net" modified="2021-01-26T07:00:04.985Z" agent="5.0 (Macintosh; Intel Mac OS X 10_13_6) AppleWebKit/537.36 (KHTML, like Gecko) Chrome/89.0.4389.9 Safari/537.36" etag="XN6j2ydOEdoWxqzntzYH" version="14.2.6" type="github">
  <diagram id="Tkq9JHS-XbR-SWtBOSNi" name="Page-1">
    <mxGraphModel dx="1426" dy="739" grid="1" gridSize="10" guides="1" tooltips="1" connect="1" arrows="1" fold="1" page="1" pageScale="1" pageWidth="827" pageHeight="1169" math="0" shadow="0">
      <root>
        <mxCell id="0" />
        <mxCell id="1" parent="0" />
        <mxCell id="iXGgATsHONW9W1taYruC-4" style="edgeStyle=orthogonalEdgeStyle;rounded=0;orthogonalLoop=1;jettySize=auto;html=1;exitX=1;exitY=0.5;exitDx=0;exitDy=0;entryX=0;entryY=0.5;entryDx=0;entryDy=0;" edge="1" parent="1" source="iXGgATsHONW9W1taYruC-1" target="iXGgATsHONW9W1taYruC-3">
          <mxGeometry relative="1" as="geometry" />
        </mxCell>
        <mxCell id="iXGgATsHONW9W1taYruC-1" value="租客已确认" style="rounded=0;whiteSpace=wrap;html=1;" vertex="1" parent="1">
          <mxGeometry x="140" y="210" width="120" height="60" as="geometry" />
        </mxCell>
        <mxCell id="iXGgATsHONW9W1taYruC-9" style="edgeStyle=orthogonalEdgeStyle;rounded=0;orthogonalLoop=1;jettySize=auto;html=1;entryX=0;entryY=0.5;entryDx=0;entryDy=0;" edge="1" parent="1" source="iXGgATsHONW9W1taYruC-2" target="iXGgATsHONW9W1taYruC-8">
          <mxGeometry relative="1" as="geometry" />
        </mxCell>
        <mxCell id="iXGgATsHONW9W1taYruC-2" value="有效订单" style="rounded=0;whiteSpace=wrap;html=1;" vertex="1" parent="1">
          <mxGeometry x="420" y="210" width="120" height="60" as="geometry" />
        </mxCell>
        <mxCell id="iXGgATsHONW9W1taYruC-5" value="Y" style="edgeStyle=orthogonalEdgeStyle;rounded=0;orthogonalLoop=1;jettySize=auto;html=1;exitX=1;exitY=0.5;exitDx=0;exitDy=0;" edge="1" parent="1" source="iXGgATsHONW9W1taYruC-3" target="iXGgATsHONW9W1taYruC-2">
          <mxGeometry relative="1" as="geometry" />
        </mxCell>
        <mxCell id="iXGgATsHONW9W1taYruC-7" style="edgeStyle=orthogonalEdgeStyle;rounded=0;orthogonalLoop=1;jettySize=auto;html=1;exitX=0.5;exitY=1;exitDx=0;exitDy=0;entryX=0.5;entryY=0;entryDx=0;entryDy=0;" edge="1" parent="1" source="iXGgATsHONW9W1taYruC-3" target="iXGgATsHONW9W1taYruC-6">
          <mxGeometry relative="1" as="geometry" />
        </mxCell>
        <mxCell id="iXGgATsHONW9W1taYruC-15" value="N" style="edgeLabel;html=1;align=center;verticalAlign=middle;resizable=0;points=[];" vertex="1" connectable="0" parent="iXGgATsHONW9W1taYruC-7">
          <mxGeometry x="-0.4" relative="1" as="geometry">
            <mxPoint as="offset" />
          </mxGeometry>
        </mxCell>
        <mxCell id="iXGgATsHONW9W1taYruC-3" value="是否有效" style="rhombus;whiteSpace=wrap;html=1;" vertex="1" parent="1">
          <mxGeometry x="300" y="200" width="80" height="80" as="geometry" />
        </mxCell>
        <mxCell id="iXGgATsHONW9W1taYruC-26" style="edgeStyle=orthogonalEdgeStyle;rounded=0;orthogonalLoop=1;jettySize=auto;html=1;exitX=0.75;exitY=0;exitDx=0;exitDy=0;entryX=0;entryY=0.5;entryDx=0;entryDy=0;" edge="1" parent="1" source="iXGgATsHONW9W1taYruC-6" target="iXGgATsHONW9W1taYruC-25">
          <mxGeometry relative="1" as="geometry" />
        </mxCell>
        <mxCell id="iXGgATsHONW9W1taYruC-6" value="无效订单" style="rounded=0;whiteSpace=wrap;html=1;" vertex="1" parent="1">
          <mxGeometry x="250" y="430" width="120" height="60" as="geometry" />
        </mxCell>
        <mxCell id="iXGgATsHONW9W1taYruC-11" style="edgeStyle=orthogonalEdgeStyle;rounded=0;orthogonalLoop=1;jettySize=auto;html=1;entryX=0;entryY=0.5;entryDx=0;entryDy=0;" edge="1" parent="1" source="iXGgATsHONW9W1taYruC-8" target="iXGgATsHONW9W1taYruC-10">
          <mxGeometry relative="1" as="geometry" />
        </mxCell>
        <mxCell id="iXGgATsHONW9W1taYruC-14" value="Y" style="edgeLabel;html=1;align=center;verticalAlign=middle;resizable=0;points=[];" vertex="1" connectable="0" parent="iXGgATsHONW9W1taYruC-11">
          <mxGeometry x="-0.15" y="3" relative="1" as="geometry">
            <mxPoint as="offset" />
          </mxGeometry>
        </mxCell>
        <mxCell id="iXGgATsHONW9W1taYruC-12" style="edgeStyle=orthogonalEdgeStyle;rounded=0;orthogonalLoop=1;jettySize=auto;html=1;entryX=0.5;entryY=1;entryDx=0;entryDy=0;" edge="1" parent="1" source="iXGgATsHONW9W1taYruC-8" target="iXGgATsHONW9W1taYruC-2">
          <mxGeometry relative="1" as="geometry">
            <Array as="points">
              <mxPoint x="620" y="300" />
              <mxPoint x="480" y="300" />
            </Array>
          </mxGeometry>
        </mxCell>
        <mxCell id="iXGgATsHONW9W1taYruC-13" value="N" style="edgeLabel;html=1;align=center;verticalAlign=middle;resizable=0;points=[];" vertex="1" connectable="0" parent="iXGgATsHONW9W1taYruC-12">
          <mxGeometry x="-0.4526" y="-1" relative="1" as="geometry">
            <mxPoint as="offset" />
          </mxGeometry>
        </mxCell>
        <mxCell id="iXGgATsHONW9W1taYruC-8" value="是否扣费月" style="rhombus;whiteSpace=wrap;html=1;" vertex="1" parent="1">
          <mxGeometry x="580" y="200" width="80" height="80" as="geometry" />
        </mxCell>
        <mxCell id="iXGgATsHONW9W1taYruC-17" style="edgeStyle=orthogonalEdgeStyle;rounded=0;orthogonalLoop=1;jettySize=auto;html=1;" edge="1" parent="1" source="iXGgATsHONW9W1taYruC-10" target="iXGgATsHONW9W1taYruC-16">
          <mxGeometry relative="1" as="geometry" />
        </mxCell>
        <mxCell id="iXGgATsHONW9W1taYruC-10" value="待支付订单" style="rounded=0;whiteSpace=wrap;html=1;" vertex="1" parent="1">
          <mxGeometry x="707" y="210" width="120" height="60" as="geometry" />
        </mxCell>
        <mxCell id="iXGgATsHONW9W1taYruC-19" style="edgeStyle=orthogonalEdgeStyle;rounded=0;orthogonalLoop=1;jettySize=auto;html=1;entryX=1;entryY=0.5;entryDx=0;entryDy=0;" edge="1" parent="1" source="iXGgATsHONW9W1taYruC-16" target="iXGgATsHONW9W1taYruC-18">
          <mxGeometry relative="1" as="geometry" />
        </mxCell>
        <mxCell id="iXGgATsHONW9W1taYruC-16" value="已支付" style="rounded=0;whiteSpace=wrap;html=1;" vertex="1" parent="1">
          <mxGeometry x="707" y="430" width="120" height="60" as="geometry" />
        </mxCell>
        <mxCell id="iXGgATsHONW9W1taYruC-20" style="edgeStyle=orthogonalEdgeStyle;rounded=0;orthogonalLoop=1;jettySize=auto;html=1;entryX=1;entryY=0.5;entryDx=0;entryDy=0;" edge="1" parent="1" source="iXGgATsHONW9W1taYruC-18" target="iXGgATsHONW9W1taYruC-6">
          <mxGeometry relative="1" as="geometry" />
        </mxCell>
        <mxCell id="iXGgATsHONW9W1taYruC-21" value="Y" style="edgeLabel;html=1;align=center;verticalAlign=middle;resizable=0;points=[];" vertex="1" connectable="0" parent="iXGgATsHONW9W1taYruC-20">
          <mxGeometry x="-0.1467" y="1" relative="1" as="geometry">
            <mxPoint as="offset" />
          </mxGeometry>
        </mxCell>
        <mxCell id="iXGgATsHONW9W1taYruC-22" value="退款" style="edgeLabel;html=1;align=center;verticalAlign=middle;resizable=0;points=[];" vertex="1" connectable="0" parent="iXGgATsHONW9W1taYruC-20">
          <mxGeometry x="0.5733" y="-2" relative="1" as="geometry">
            <mxPoint as="offset" />
          </mxGeometry>
        </mxCell>
        <mxCell id="iXGgATsHONW9W1taYruC-23" style="edgeStyle=orthogonalEdgeStyle;rounded=0;orthogonalLoop=1;jettySize=auto;html=1;entryX=0.5;entryY=1;entryDx=0;entryDy=0;" edge="1" parent="1" source="iXGgATsHONW9W1taYruC-18" target="iXGgATsHONW9W1taYruC-16">
          <mxGeometry relative="1" as="geometry">
            <Array as="points">
              <mxPoint x="600" y="520" />
              <mxPoint x="767" y="520" />
            </Array>
          </mxGeometry>
        </mxCell>
        <mxCell id="iXGgATsHONW9W1taYruC-24" value="N" style="edgeLabel;html=1;align=center;verticalAlign=middle;resizable=0;points=[];" vertex="1" connectable="0" parent="iXGgATsHONW9W1taYruC-23">
          <mxGeometry x="-0.16" y="2" relative="1" as="geometry">
            <mxPoint as="offset" />
          </mxGeometry>
        </mxCell>
        <mxCell id="iXGgATsHONW9W1taYruC-18" value="是否无效" style="rhombus;whiteSpace=wrap;html=1;" vertex="1" parent="1">
          <mxGeometry x="560" y="420" width="80" height="80" as="geometry" />
        </mxCell>
        <mxCell id="iXGgATsHONW9W1taYruC-27" value="Y" style="edgeStyle=orthogonalEdgeStyle;rounded=0;orthogonalLoop=1;jettySize=auto;html=1;" edge="1" parent="1" source="iXGgATsHONW9W1taYruC-25">
          <mxGeometry relative="1" as="geometry">
            <mxPoint x="450" y="270" as="targetPoint" />
            <Array as="points">
              <mxPoint x="454" y="270" />
            </Array>
          </mxGeometry>
        </mxCell>
        <mxCell id="iXGgATsHONW9W1taYruC-25" value="是否有效" style="rhombus;whiteSpace=wrap;html=1;" vertex="1" parent="1">
          <mxGeometry x="414" y="340" width="80" height="80" as="geometry" />
        </mxCell>
      </root>
    </mxGraphModel>
  </diagram>
</mxfile>
